P2
# Commentaire exemple
3 2
255
0 255 0
255 0 255
